<svg 
	xmlns="http://www.w3.org/2000/svg" 
	viewBox="0 0 2920 4226"
>
	<g>
		<path d="M1580 2819c-124,-393 -311,-819 -693,-1014 -129,-66 -368,-148 -433,-120 -15,217 108,318 207,421 53,-30 69,-75 158,-92 38,-8 82,-11 120,-7 63,7 74,19 80,54 -55,16 -122,-4 -188,15 -51,15 -85,49 -106,91 14,45 76,105 106,124 11,-22 -2,-28 7,-48 67,-5 36,17 74,55 46,13 72,-12 95,-38 31,-34 32,-61 86,-60 17,130 -96,177 -201,208 7,49 15,95 18,150 2,55 -10,123 21,153 55,35 153,-34 200,1 22,20 9,3 16,38 3,21 0,19 6,43 54,25 100,13 123,71 19,50 54,81 92,103 60,36 91,-23 113,-55 63,-91 60,-49 99,-93zm-819 -2636c-311,-36 -515,75 -300,338 296,363 1174,753 1690,799 310,28 532,-74 304,-338 -334,-388 -1140,-733 -1694,-799zm-761 76l0 -109c33,-50 32,-73 89,-103 46,-23 108,-26 151,-47l281 0c34,12 226,31 283,42 544,106 1165,377 1598,680 147,103 718,534 445,728 -310,218 -1209,-94 -1560,-248l-440 -212c-140,-51 -504,298 -428,512 21,60 35,53 104,60 429,44 699,290 901,561 137,183 336,682 325,978 97,-41 148,-227 180,-283 52,-88 170,-80 43,178 -102,208 -145,205 -287,348 -139,139 -243,222 -346,417 -123,234 -80,290 -77,465 -54,-15 -107,-77 -134,-122 -102,-177 29,-423 130,-551 19,-24 32,-44 56,-71 28,-31 34,-46 56,-72 41,-46 76,-82 118,-127 23,-24 30,-42 56,-71 78,-85 74,-197 51,-311 -51,3 -72,90 -109,135 -38,45 -120,77 -172,19 -26,-30 -21,-48 -65,-62 -51,-17 -59,-7 -80,-48 -43,-87 -36,17 -86,-99 -56,-130 -270,115 -269,-145 1,-145 9,-229 -62,-338 -89,-137 -347,-240 -402,-595 -26,-171 17,-55 -53,-144 -56,-72 -48,-236 -21,-332 57,-200 229,-312 385,-411l-49 -37c-16,-9 -27,-18 -46,-30 -20,-14 -34,-20 -52,-33 -16,-12 -25,-21 -43,-33 -118,-79 -256,-187 -348,-296 -111,-131 -59,-81 -123,-193z"/>
	</g>
</svg>
