<?xml version="1.0" encoding="UTF-8"?>
<!DOCTYPE svg PUBLIC "-//W3C//DTD SVG 1.1//EN" "http://www.w3.org/Graphics/SVG/1.1/DTD/svg11.dtd">
<!-- Creator: CorelDRAW X8 -->
<svg xmlns="http://www.w3.org/2000/svg" xml:space="preserve" width="43.3493mm" height="43.3493mm" version="1.1" style="shape-rendering:geometricPrecision; text-rendering:geometricPrecision; image-rendering:optimizeQuality; fill-rule:evenodd; clip-rule:evenodd"
viewBox="0 0 4335 4335"
 xmlns:xlink="http://www.w3.org/1999/xlink">
 <defs>
  <style type="text/css">
   <![CDATA[
    .fil0 {fill:none}
    .fil1 {fill:white}
   ]]>
  </style>
 </defs>
 <g id="Camada_x0020_1">
  <metadata id="CorelCorpID_0Corel-Layer"/>
  <g id="_1860828565856">
   <rect class="fil0" width="4335" height="4335"/>
   <path class="fil1" d="M1803 944c0,91 63,128 115,181l293 293c43,43 100,120 177,120 100,0 149,-67 149,-166 0,-83 -184,-197 -245,-288 206,0 490,127 652,248 305,229 528,605 528,993 0,249 -22,411 -128,623 -322,641 -1053,910 -1699,627 -135,-60 -277,-150 -382,-256 -115,-116 -189,-216 -267,-371 -188,-374 -169,-837 35,-1203 69,-124 142,-212 241,-309 42,-43 67,-58 67,-134 0,-78 -62,-140 -148,-140 -118,0 -324,287 -386,392 -118,198 -225,484 -226,710 0,58 -14,86 -8,148 30,349 104,650 321,928 281,358 720,637 1243,637 277,0 502,-45 714,-152 338,-171 631,-432 779,-794 39,-95 76,-183 98,-295 96,-479 19,-879 -258,-1282l-129 -158c-205,-203 -414,-357 -703,-443 -91,-27 -216,-58 -326,-58 78,-117 227,-166 227,-297 0,-82 -61,-140 -149,-140 -82,0 -128,71 -172,116l-293 293c-46,45 -120,94 -120,177z"/>
  </g>
 </g>
</svg>
